<svg version="1.1" id="Layer_1" xmlns="http://www.w3.org/2000/svg" xmlns:xlink="http://www.w3.org/1999/xlink" x="0px" y="0px"
	 width="100%" viewBox="0 0 578 654" enable-background="new 0 0 578 654" xml:space="preserve">
<path fill="#000000" opacity="1.000000" stroke="none" 
	d="
M567.000000,1.000000 
	C570.998901,1.000000 574.997864,1.000000 578.997559,1.000000 
	C578.998413,218.939713 578.998413,436.879425 578.998413,654.909546 
	C386.445953,654.909546 193.891846,654.909546 1.000000,654.909546 
	C1.000000,541.976929 1.000000,428.953461 1.372823,315.162170 
	C2.495962,318.319153 3.360817,322.226166 3.974901,326.172211 
	C5.744974,337.546387 6.595492,349.134796 9.297632,360.277618 
	C14.477327,381.637207 21.664650,402.445892 31.133533,422.300140 
	C40.216251,441.344696 50.777794,459.577209 62.895367,476.943481 
	C76.011993,495.741516 90.669800,513.228394 106.446846,529.748108 
	C115.783432,539.524170 125.999214,548.485779 136.101944,557.497131 
	C144.389862,564.889648 152.656586,572.436584 161.708115,578.814575 
	C179.216324,591.151550 197.086487,603.002319 215.149597,614.516602 
	C234.155869,626.632019 254.231018,636.757446 275.898560,643.291077 
	C279.556274,644.394043 284.055634,644.936951 287.577301,643.843018 
	C298.256226,640.525940 308.979614,636.990051 319.083862,632.255127 
	C345.402557,619.922119 369.858002,604.458313 393.429596,587.400391 
	C413.059235,573.195190 431.787140,557.949097 449.068054,541.101501 
	C462.473602,528.032043 474.737640,513.732971 486.897034,499.459137 
	C501.891205,481.857544 514.439087,462.566345 525.538147,442.211334 
	C535.107117,424.662537 543.418396,406.608612 549.837219,387.776154 
	C555.962708,369.804413 560.962097,351.435883 563.010010,332.433533 
	C564.356689,319.937561 566.783875,307.441803 566.824463,294.939758 
	C567.142456,196.960678 567.000244,98.980110 567.000000,1.000000 
z"/>
<path fill="#FEFEFE" opacity="1.000000" stroke="none" 
	d="
M566.531372,1.000000 
	C567.000244,98.980110 567.142456,196.960678 566.824463,294.939758 
	C566.783875,307.441803 564.356689,319.937561 563.010010,332.433533 
	C560.962097,351.435883 555.962708,369.804413 549.837219,387.776154 
	C543.418396,406.608612 535.107117,424.662537 525.538147,442.211334 
	C514.439087,462.566345 501.891205,481.857544 486.897034,499.459137 
	C474.737640,513.732971 462.473602,528.032043 449.068054,541.101501 
	C431.787140,557.949097 413.059235,573.195190 393.429596,587.400391 
	C369.858002,604.458313 345.402557,619.922119 319.083862,632.255127 
	C308.979614,636.990051 298.256226,640.525940 287.577301,643.843018 
	C284.055634,644.936951 279.556274,644.394043 275.898560,643.291077 
	C254.231018,636.757446 234.155869,626.632019 215.149597,614.516602 
	C197.086487,603.002319 179.216324,591.151550 161.708115,578.814575 
	C152.656586,572.436584 144.389862,564.889648 136.101944,557.497131 
	C125.999214,548.485779 115.783432,539.524170 106.446846,529.748108 
	C90.669800,513.228394 76.011993,495.741516 62.895367,476.943481 
	C50.777794,459.577209 40.216251,441.344696 31.133533,422.300140 
	C21.664650,402.445892 14.477327,381.637207 9.297632,360.277618 
	C6.595492,349.134796 5.744974,337.546387 3.974901,326.172211 
	C3.360817,322.226166 2.495962,318.319153 1.372823,314.697144 
	C1.000000,210.385376 1.000000,105.770752 1.000000,1.000000 
	C189.354202,1.000000 377.708435,1.000000 566.531372,1.000000 
M473.736450,498.230896 
	C479.257324,491.135376 484.972260,484.181396 490.268402,476.921906 
	C533.895813,417.121368 556.415466,350.556152 555.958069,276.148468 
	C555.429565,190.165848 555.835144,104.177505 555.835144,18.191643 
	C555.835144,16.246586 555.835144,14.301530 555.835144,12.223937 
	C374.406403,12.223937 193.515320,12.223937 12.157356,12.223937 
	C12.157356,14.217199 12.157356,16.009459 12.157356,17.801720 
	C12.157356,107.120377 12.152881,196.439026 12.170978,285.757690 
	C12.171854,290.082489 12.284746,294.411346 12.491349,298.731354 
	C14.685215,344.604279 26.669266,387.812195 47.659340,428.618347 
	C68.364914,468.871429 95.836655,503.986572 128.605652,534.989197 
	C168.422272,572.659546 212.986511,603.357178 262.787476,626.599243 
	C277.392029,633.415222 290.196899,633.514465 304.790344,626.644836 
	C370.072510,595.914307 426.379639,553.608459 473.736450,498.230896 
z"/>
<path fill="#04215C" opacity="1.000000" stroke="none" 
	d="
M473.500793,498.497742 
	C426.379639,553.608459 370.072510,595.914307 304.790344,626.644836 
	C290.196899,633.514465 277.392029,633.415222 262.787476,626.599243 
	C212.986511,603.357178 168.422272,572.659546 128.605652,534.989197 
	C95.836655,503.986572 68.364914,468.871429 47.659340,428.618347 
	C26.669266,387.812195 14.685215,344.604279 12.491349,298.731354 
	C12.284746,294.411346 12.171854,290.082489 12.170978,285.757690 
	C12.152881,196.439026 12.157356,107.120377 12.157356,17.801720 
	C12.157356,16.009459 12.157356,14.217199 12.157356,12.223937 
	C193.515320,12.223937 374.406403,12.223937 555.835144,12.223937 
	C555.835144,14.301530 555.835144,16.246586 555.835144,18.191643 
	C555.835144,104.177505 555.429565,190.165848 555.958069,276.148468 
	C556.415466,350.556152 533.895813,417.121368 490.268402,476.921906 
	C484.972260,484.181396 479.257324,491.135376 473.500793,498.497742 
M546.846069,183.049622 
	C372.209351,183.034195 197.572601,183.018234 22.935871,183.017761 
	C22.003468,183.017761 21.071066,183.235733 20.001892,183.368958 
	C20.001892,216.472244 20.143938,249.287048 19.962692,282.100098 
	C19.774347,316.198639 25.140184,349.372650 36.191425,381.580658 
	C40.100315,392.972870 44.930870,404.048859 49.574654,415.864624 
	C128.248901,339.952728 206.064346,264.869476 283.877655,189.788284 
	C362.074371,265.239441 439.719238,340.158142 517.616516,415.320374 
	C518.393372,413.958649 519.117737,413.034973 519.489258,411.986298 
	C525.977417,393.673767 533.663391,375.667358 538.516479,356.928192 
	C543.077209,339.318085 544.636475,320.930634 548.286072,302.509491 
	C548.522339,301.407654 548.964111,300.306000 548.965271,299.203918 
	C549.003479,261.825073 549.012756,224.446198 548.949646,187.067429 
	C548.947388,185.737259 548.168762,184.408401 546.846069,183.049622 
M238.500000,19.882971 
	C165.766434,19.882971 93.032860,19.882971 20.435947,19.882971 
	C20.435947,72.106766 20.435947,123.488495 20.435947,174.688568 
	C196.419235,174.688568 371.965820,174.688568 547.583496,174.688568 
	C547.583496,123.002014 547.583496,71.744965 547.583496,19.882807 
	C444.701324,19.882807 342.100647,19.882807 238.500000,19.882971 
M141.902008,536.582458 
	C180.074020,571.060364 222.079453,599.649292 269.221039,620.624329 
	C279.425079,625.164551 288.298004,625.145996 298.490326,620.629272 
	C336.641052,603.722717 371.476166,581.592102 403.843475,555.453552 
	C414.014526,547.239746 423.710907,538.438232 433.846436,529.714783 
	C383.510559,476.248383 333.794464,423.440308 283.873688,370.414825 
	C233.794220,423.613190 184.069702,476.434479 134.158142,529.454468 
	C136.744614,531.834656 139.061981,533.967163 141.902008,536.582458 
M419.303650,360.972107 
	C391.006104,356.061127 365.201172,376.003967 363.963806,403.740387 
	C362.810425,429.595764 382.024017,451.288116 407.449036,452.835602 
	C432.999390,454.390717 454.909882,434.993286 456.571167,408.836060 
	C457.948364,387.152466 443.380035,366.432190 419.303650,360.972107 
M114.846107,388.459778 
	C111.333282,396.785950 110.343643,405.338776 111.833855,414.314972 
	C116.145294,440.284515 141.851547,457.576660 167.744431,451.747864 
	C193.545547,445.939758 209.487305,419.083374 202.097198,393.875275 
	C196.574081,375.035583 180.697296,361.922974 161.254913,360.143768 
	C142.007599,358.382355 124.452721,368.870270 114.846107,388.459778 
M244.306732,315.104034 
	C259.100433,337.657623 286.707825,344.068237 308.774109,330.073730 
	C329.999329,316.612640 336.622040,288.317047 323.550446,266.941437 
	C310.366821,245.382614 282.586151,238.237930 260.755798,250.791748 
	C238.459167,263.613708 231.122314,291.391418 244.306732,315.104034 
z"/>
<path fill="#FEFEFF" opacity="1.000000" stroke="none" 
	d="
M547.516357,302.885223 
	C544.636475,320.930634 543.077209,339.318085 538.516479,356.928192 
	C533.663391,375.667358 525.977417,393.673767 519.489258,411.986298 
	C519.117737,413.034973 518.393372,413.958649 517.616516,415.320374 
	C439.719238,340.158142 362.074371,265.239441 283.877655,189.788284 
	C206.064346,264.869476 128.248901,339.952728 49.574654,415.864624 
	C44.930870,404.048859 40.100315,392.972870 36.191425,381.580658 
	C25.140184,349.372650 19.774347,316.198639 19.962692,282.100098 
	C20.143938,249.287048 20.001892,216.472244 20.001892,183.368958 
	C21.071066,183.235733 22.003468,183.017761 22.935871,183.017761 
	C197.572601,183.018234 372.209351,183.034195 547.341125,183.525665 
	C547.729553,223.629562 547.622986,263.257385 547.516357,302.885223 
z"/>
<path fill="#980000" opacity="1.000000" stroke="none" 
	d="
M239.000000,19.882889 
	C342.100647,19.882807 444.701324,19.882807 547.583496,19.882807 
	C547.583496,71.744965 547.583496,123.002014 547.583496,174.688568 
	C371.965820,174.688568 196.419235,174.688568 20.435947,174.688568 
	C20.435947,123.488495 20.435947,72.106766 20.435947,19.882971 
	C93.032860,19.882971 165.766434,19.882971 239.000000,19.882889 
M215.370560,149.962524 
	C219.713089,147.192368 224.506302,144.920486 228.272980,141.513687 
	C232.135956,138.019775 236.508667,133.873535 237.926163,129.186508 
	C239.883026,122.716072 243.986923,121.202499 248.945770,122.137131 
	C257.341370,123.719498 265.879272,125.660019 273.680389,129.021255 
	C285.268127,134.014069 296.155640,140.604767 307.543304,146.096298 
	C320.975830,152.573914 334.953796,157.263458 350.175629,156.907150 
	C368.538696,156.477295 390.680267,144.271667 392.397491,121.417282 
	C392.943604,114.149567 391.713989,106.423630 389.703369,99.361038 
	C386.267792,87.293266 384.883667,75.626007 390.380829,63.898197 
	C391.817902,60.832401 390.336090,59.633797 387.485077,59.164360 
	C379.238220,57.806446 369.609589,62.245335 366.118134,69.866295 
	C364.147980,74.166702 363.022522,78.991806 362.349762,83.699623 
	C361.914337,86.746849 361.218048,88.204712 358.087280,89.233414 
	C342.833832,94.245346 341.446533,107.810112 346.286469,119.670830 
	C347.454376,122.532860 349.072510,122.677292 351.033875,120.304543 
	C352.832001,118.129272 354.521271,115.819130 356.578247,113.913544 
	C359.460571,111.243324 362.903961,109.924919 366.545410,112.429131 
	C370.188721,114.934639 371.541748,118.569092 370.490021,122.906204 
	C369.208160,128.192429 364.127686,131.730179 357.612457,132.055038 
	C347.794403,132.544586 340.708557,127.034042 333.638702,121.327492 
	C330.683716,118.942314 328.013733,116.915741 329.779053,112.361809 
	C330.409882,110.734550 330.117645,108.024239 329.112946,106.618782 
	C325.527130,101.602783 321.757446,96.895996 322.585938,90.068878 
	C322.700958,89.120728 320.371246,87.897736 319.209198,86.765083 
	C318.440369,86.015701 317.045197,85.139656 317.108185,84.423965 
	C317.810516,76.442741 313.148102,73.822388 308.056793,73.593910 
	C305.237488,69.014061 303.806183,64.473961 300.711334,62.273838 
	C297.507751,59.996403 292.690277,59.989147 288.375427,58.939434 
	C286.711761,50.632244 283.005035,48.716297 272.019623,50.904278 
	C264.788605,42.036633 261.386932,41.469086 250.789871,47.059605 
	C249.717209,47.625496 247.883270,47.803188 246.873596,47.269695 
	C237.336319,42.230465 235.365967,42.318623 227.291626,48.758053 
	C217.105728,43.968319 213.069214,45.473354 205.152466,57.250439 
	C201.931091,53.338638 199.499420,55.657871 197.249359,58.388168 
	C185.798004,72.283630 178.360931,88.075417 175.261292,105.822372 
	C174.468414,110.362000 175.810333,114.367928 179.702362,117.298866 
	C182.856125,119.673836 183.030457,122.434204 180.452606,125.417152 
	C179.473419,126.550201 178.526138,127.717247 177.645065,128.927582 
	C173.419891,134.731750 174.383804,139.320724 180.352676,143.180115 
	C181.754501,144.086517 183.084717,145.538834 183.764374,147.047852 
	C186.082947,152.195709 190.185898,155.285080 195.484360,154.701370 
	C201.968964,153.987000 208.292999,151.815262 215.370560,149.962524 
M112.350220,44.717621 
	C102.871796,49.638493 93.582436,49.578671 83.810043,44.932701 
	C77.491638,41.928806 70.566574,42.976879 64.783463,46.937378 
	C57.849747,51.685852 50.415375,53.829395 42.171131,53.050423 
	C37.981800,52.654587 36.947010,54.476837 37.205669,58.233906 
	C37.487961,62.334194 37.517712,66.128647 33.708920,69.465912 
	C32.222755,70.768097 32.122368,76.419334 33.559555,77.753578 
	C37.346741,81.269508 37.319592,85.182716 37.274231,89.523705 
	C37.197659,96.851006 37.519711,104.194511 37.113102,111.499985 
	C36.964626,114.167557 35.694916,117.097092 34.089546,119.285713 
	C31.463320,122.866058 30.769590,126.740555 33.985134,129.494431 
	C36.924046,132.011383 37.506958,134.838669 37.278656,138.301254 
	C37.140537,140.396011 37.253223,142.507324 37.253223,144.725983 
	C77.868721,144.725983 117.766350,144.725983 157.872375,144.725983 
	C158.016663,143.685867 158.225967,142.894333 158.219864,142.104446 
	C158.181351,137.119110 158.002274,132.506699 162.640167,128.591965 
	C165.688599,126.018837 164.358566,122.104462 161.545822,118.865089 
	C159.883286,116.950386 158.510529,114.128967 158.391846,111.649033 
	C158.002182,103.506844 157.984070,95.321175 158.395035,87.181084 
	C158.528793,84.531883 159.914001,81.563148 161.616516,79.461159 
	C164.528427,75.866013 165.360870,71.843063 161.983002,68.847527 
	C158.693542,65.930389 157.920197,62.668125 158.207138,58.659111 
	C158.330719,56.932697 158.033081,55.176132 157.920547,53.330856 
	C156.188965,53.234241 155.037689,53.066280 153.897583,53.123047 
	C145.860992,53.523182 138.503815,51.922733 131.723297,47.171413 
	C126.165230,43.276699 119.715454,42.636448 112.350220,44.717621 
M435.150177,47.588100 
	C427.640503,53.764309 418.431030,52.988113 409.450714,53.321373 
	C409.316589,54.777420 409.135773,55.750370 409.153137,56.719769 
	C409.238983,61.505978 409.432709,65.908661 405.124420,69.792923 
	C402.204681,72.425331 403.534363,76.400963 406.280090,79.614113 
	C407.721832,81.301231 408.932465,83.774208 409.008972,85.936142 
	C409.315002,94.584106 409.357788,103.258553 408.995789,111.902176 
	C408.891815,114.385162 407.547638,117.142159 405.985382,119.166328 
	C403.224426,122.743637 402.654388,127.003494 406.026123,129.818832 
	C408.703888,132.054733 409.383331,134.488174 409.166138,137.652512 
	C409.010498,139.919724 409.135834,142.206207 409.135834,144.616974 
	C449.772430,144.616974 489.779999,144.616974 529.860107,144.616974 
	C529.972473,143.414581 530.120728,142.595215 530.113586,141.777191 
	C530.071716,136.986481 529.765015,132.515060 534.312256,128.753632 
	C537.493652,126.122047 536.080688,122.292877 533.461670,118.967819 
	C531.792419,116.848457 530.414673,113.917984 530.279297,111.280739 
	C529.870239,103.308998 530.257996,95.299919 530.071716,87.311539 
	C529.992615,83.920723 530.732727,81.337402 533.427246,78.992805 
	C536.778076,76.077164 537.184326,71.381004 533.906616,69.000191 
	C530.099182,66.234627 529.911926,62.870567 530.115845,58.964321 
	C530.208008,57.198933 530.131470,55.424744 530.131470,53.402054 
	C528.016052,53.277107 526.549561,53.054756 525.097900,53.127441 
	C517.402161,53.512730 510.374786,51.954189 503.862915,47.456684 
	C496.207886,42.169601 487.788666,42.492611 479.643127,46.240273 
	C472.996826,49.298164 466.876312,49.618641 460.093262,46.360889 
	C452.078735,42.511677 443.731689,42.301434 435.150177,47.588100 
z"/>
<path fill="#FEFEFF" opacity="1.000000" stroke="none" 
	d="
M141.640686,536.341064 
	C139.061981,533.967163 136.744614,531.834656 134.158142,529.454468 
	C184.069702,476.434479 233.794220,423.613190 283.873688,370.414825 
	C333.794464,423.440308 383.510559,476.248383 433.846436,529.714783 
	C423.710907,538.438232 414.014526,547.239746 403.843475,555.453552 
	C371.476166,581.592102 336.641052,603.722717 298.490326,620.629272 
	C288.298004,625.145996 279.425079,625.164551 269.221039,620.624329 
	C222.079453,599.649292 180.074020,571.060364 141.640686,536.341064 
z"/>
<path fill="#FDFEFE" opacity="1.000000" stroke="none" 
	d="
M419.725891,361.021973 
	C443.380035,366.432190 457.948364,387.152466 456.571167,408.836060 
	C454.909882,434.993286 432.999390,454.390717 407.449036,452.835602 
	C382.024017,451.288116 362.810425,429.595764 363.963806,403.740387 
	C365.201172,376.003967 391.006104,356.061127 419.725891,361.021973 
z"/>
<path fill="#FEFEFE" opacity="1.000000" stroke="none" 
	d="
M114.962723,388.095154 
	C124.452721,368.870270 142.007599,358.382355 161.254913,360.143768 
	C180.697296,361.922974 196.574081,375.035583 202.097198,393.875275 
	C209.487305,419.083374 193.545547,445.939758 167.744431,451.747864 
	C141.851547,457.576660 116.145294,440.284515 111.833855,414.314972 
	C110.343643,405.338776 111.333282,396.785950 114.962723,388.095154 
z"/>
<path fill="#FEFEFE" opacity="1.000000" stroke="none" 
	d="
M244.121613,314.787201 
	C231.122314,291.391418 238.459167,263.613708 260.755798,250.791748 
	C282.586151,238.237930 310.366821,245.382614 323.550446,266.941437 
	C336.622040,288.317047 329.999329,316.612640 308.774109,330.073730 
	C286.707825,344.068237 259.100433,337.657623 244.121613,314.787201 
z"/>
<path fill="#00084A" opacity="1.000000" stroke="none" 
	d="
M547.901245,302.697357 
	C547.622986,263.257385 547.729553,223.629562 547.794067,183.540344 
	C548.168762,184.408401 548.947388,185.737259 548.949646,187.067429 
	C549.012756,224.446198 549.003479,261.825073 548.965271,299.203918 
	C548.964111,300.306000 548.522339,301.407654 547.901245,302.697357 
z"/>
<path fill="#102760" opacity="1.000000" stroke="none" 
	d="
M215.028503,150.118103 
	C208.292999,151.815262 201.968964,153.987000 195.484360,154.701370 
	C190.185898,155.285080 186.082947,152.195709 183.764374,147.047852 
	C183.084717,145.538834 181.754501,144.086517 180.352676,143.180115 
	C174.383804,139.320724 173.419891,134.731750 177.645065,128.927582 
	C178.526138,127.717247 179.473419,126.550201 180.452606,125.417152 
	C183.030457,122.434204 182.856125,119.673836 179.702362,117.298866 
	C175.810333,114.367928 174.468414,110.362000 175.261292,105.822372 
	C178.360931,88.075417 185.798004,72.283630 197.249359,58.388168 
	C199.499420,55.657871 201.931091,53.338638 205.152466,57.250439 
	C213.069214,45.473354 217.105728,43.968319 227.291626,48.758053 
	C235.365967,42.318623 237.336319,42.230465 246.873596,47.269695 
	C247.883270,47.803188 249.717209,47.625496 250.789871,47.059605 
	C261.386932,41.469086 264.788605,42.036633 272.019623,50.904278 
	C283.005035,48.716297 286.711761,50.632244 288.375427,58.939434 
	C292.690277,59.989147 297.507751,59.996403 300.711334,62.273838 
	C303.806183,64.473961 305.237488,69.014061 308.056793,73.593910 
	C313.148102,73.822388 317.810516,76.442741 317.108185,84.423965 
	C317.045197,85.139656 318.440369,86.015701 319.209198,86.765083 
	C320.371246,87.897736 322.700958,89.120728 322.585938,90.068878 
	C321.757446,96.895996 325.527130,101.602783 329.112946,106.618782 
	C330.117645,108.024239 330.409882,110.734550 329.779053,112.361809 
	C328.013733,116.915741 330.683716,118.942314 333.638702,121.327492 
	C340.708557,127.034042 347.794403,132.544586 357.612457,132.055038 
	C364.127686,131.730179 369.208160,128.192429 370.490021,122.906204 
	C371.541748,118.569092 370.188721,114.934639 366.545410,112.429131 
	C362.903961,109.924919 359.460571,111.243324 356.578247,113.913544 
	C354.521271,115.819130 352.832001,118.129272 351.033875,120.304543 
	C349.072510,122.677292 347.454376,122.532860 346.286469,119.670830 
	C341.446533,107.810112 342.833832,94.245346 358.087280,89.233414 
	C361.218048,88.204712 361.914337,86.746849 362.349762,83.699623 
	C363.022522,78.991806 364.147980,74.166702 366.118134,69.866295 
	C369.609589,62.245335 379.238220,57.806446 387.485077,59.164360 
	C390.336090,59.633797 391.817902,60.832401 390.380829,63.898197 
	C384.883667,75.626007 386.267792,87.293266 389.703369,99.361038 
	C391.713989,106.423630 392.943604,114.149567 392.397491,121.417282 
	C390.680267,144.271667 368.538696,156.477295 350.175629,156.907150 
	C334.953796,157.263458 320.975830,152.573914 307.543304,146.096298 
	C296.155640,140.604767 285.268127,134.014069 273.680389,129.021255 
	C265.879272,125.660019 257.341370,123.719498 248.945770,122.137131 
	C243.986923,121.202499 239.883026,122.716072 237.926163,129.186508 
	C236.508667,133.873535 232.135956,138.019775 228.272980,141.513687 
	C224.506302,144.920486 219.713089,147.192368 215.028503,150.118103 
M284.877655,76.596977 
	C265.502045,59.492744 228.794739,56.132015 211.919601,69.652802 
	C213.812256,76.401009 215.664948,83.006760 217.181335,88.413422 
	C223.142502,89.506104 228.931885,90.567307 235.347183,91.743233 
	C241.064178,85.461304 244.851669,84.774689 252.641037,89.935783 
	C256.272522,92.341927 259.386200,91.966110 263.369843,90.602806 
	C266.820740,89.421829 271.622314,88.843086 274.568024,90.392097 
	C278.109161,92.254196 280.318146,96.649651 283.792664,100.763809 
	C293.198456,101.111801 294.626556,102.224380 298.275635,113.201233 
	C306.370941,113.931664 309.472260,115.985786 310.005035,121.914581 
	C310.347504,125.725845 311.270966,128.044891 315.298920,129.568604 
	C320.539337,131.550980 321.712097,137.005417 318.420532,141.221481 
	C317.910675,140.533417 316.999603,139.867279 317.047272,139.278809 
	C317.417511,134.709198 314.852325,132.532578 310.904236,131.507706 
	C307.706207,130.677536 307.008118,128.452545 306.856689,125.509300 
	C306.476257,118.114723 304.766022,116.434982 297.733795,117.276428 
	C294.515808,117.661469 294.118866,116.460495 293.974182,113.824463 
	C293.572174,106.499908 290.342468,103.517220 283.100891,104.325050 
	C279.708496,104.703476 278.394867,104.235519 277.932434,100.564194 
	C277.042206,93.496391 271.101074,90.337830 264.858673,93.609642 
	C259.681976,96.322899 255.206985,95.977005 250.442490,92.731628 
	C244.213959,88.489052 241.252289,89.348663 237.097397,96.194122 
	C239.450974,99.457130 241.646042,103.021294 244.371170,106.119217 
	C246.690598,108.755997 246.211884,110.245094 243.534607,112.037132 
	C239.998566,114.404015 236.652039,117.054008 233.224045,119.582298 
	C235.318680,120.540718 237.147507,120.400391 238.951263,120.106323 
	C242.695908,119.495857 246.619339,117.733368 250.125122,118.362427 
	C258.052368,119.784859 266.141785,121.511917 273.487915,124.683800 
	C284.745728,129.544647 295.365021,135.864182 306.379486,141.313705 
	C320.802032,148.449432 335.680939,153.855118 352.212555,153.015488 
	C374.483673,151.884369 390.618134,134.440506 388.788818,112.938354 
	C388.439392,108.831429 387.025360,104.826508 386.367706,100.731934 
	C385.110992,92.907448 383.463959,85.077538 383.122375,77.200287 
	C382.924103,72.628586 384.950684,67.960396 385.980133,63.317482 
	C377.197327,62.630970 370.702850,66.519508 368.060059,74.534821 
	C366.881226,78.110153 366.219208,81.990593 366.126923,85.752296 
	C366.030945,89.663055 365.115509,91.449402 360.819611,92.377365 
	C349.412598,94.841393 344.316772,105.802650 349.557556,115.558289 
	C350.597565,114.457085 351.579590,113.347702 352.634308,112.312355 
	C357.679108,107.360207 362.942383,106.185005 367.953247,108.859459 
	C373.143951,111.629883 375.497467,117.634140 373.927795,124.415062 
	C372.520691,130.494003 368.066803,133.506271 362.488617,135.011185 
	C353.622406,137.403168 345.413605,135.058563 338.501923,129.675735 
	C330.253754,123.251984 322.305389,116.327408 314.944763,108.907860 
	C304.754944,98.636459 295.234314,87.701195 284.877655,76.596977 
M184.799469,125.964890 
	C184.093033,126.890839 183.202301,127.729759 182.715988,128.759644 
	C181.441681,131.458405 178.722549,135.961411 179.475677,136.670944 
	C181.860641,138.917847 185.475601,140.615021 188.784714,140.978409 
	C197.478775,141.933151 205.059952,138.699280 211.726028,133.129181 
	C213.052567,132.020752 214.742111,131.346771 216.264267,130.472458 
	C216.603394,131.126236 216.942520,131.780014 217.281647,132.433792 
	C209.861099,141.865860 199.424210,145.127808 187.234482,145.185822 
	C189.830933,151.278214 194.628159,151.619629 199.525620,150.946579 
	C213.605621,149.011597 224.588242,141.691849 233.205338,130.659592 
	C234.417236,129.108032 234.824478,126.927940 235.759933,124.661400 
	C233.666565,124.311470 232.307846,124.288261 231.112564,123.834496 
	C229.510132,123.226158 228.034134,122.284691 226.503860,121.486252 
	C227.533707,120.111603 228.334091,118.446533 229.636841,117.417313 
	C233.392670,114.450035 237.351135,111.739243 241.308273,108.870987 
	C238.698669,105.114594 236.476227,101.605347 233.944046,98.335991 
	C228.888809,91.809074 221.725525,90.884796 215.211304,95.838699 
	C212.964294,97.547501 211.005295,99.640137 208.729263,101.303642 
	C207.436142,102.248764 205.767654,102.680313 204.268219,103.343147 
	C203.885727,102.874916 203.503235,102.406677 203.120758,101.938446 
	C204.614319,100.174973 205.943848,98.232948 207.632370,96.681686 
	C212.596771,92.120880 214.256104,86.823395 211.495102,80.529991 
	C208.458023,73.607285 205.253067,66.758209 202.032913,59.682976 
	C200.905609,60.455917 200.411606,60.658146 200.110687,61.020660 
	C189.172867,74.196678 182.060547,89.175644 179.067749,106.055817 
	C178.444168,109.573006 179.366821,112.518204 182.504944,114.768120 
	C186.210587,117.424942 187.236954,121.016693 184.799469,125.964890 
M296.098206,82.397842 
	C305.729492,93.058533 315.360779,103.719223 325.521484,114.965912 
	C327.402710,109.286400 326.126434,105.710777 322.021729,103.727829 
	C318.908813,102.224007 318.403503,100.534401 319.474609,97.456360 
	C320.851440,93.499878 320.147125,90.369156 315.375488,89.006668 
	C314.324677,88.706612 313.059692,86.451889 313.176727,85.219116 
	C313.791351,78.744667 312.181213,76.760437 305.497711,77.466827 
	C302.233948,77.811775 301.907196,76.656357 302.071655,73.890625 
	C302.530090,66.180756 298.522675,62.473270 290.828674,63.229626 
	C288.923553,63.416904 287.034363,63.766266 285.093201,64.047585 
	C284.434906,51.162216 279.877197,52.370262 269.692780,55.809532 
	C269.379639,55.310993 268.962982,54.806156 268.714996,54.228863 
	C265.362976,46.425667 261.204987,45.038944 253.960617,49.378479 
	C252.823563,50.059597 251.884323,51.276108 250.682343,51.590733 
	C249.243195,51.967434 247.130417,52.274944 246.153793,51.520012 
	C237.993454,45.212124 235.771576,45.338604 229.444412,53.036926 
	C229.168015,53.373215 228.595505,53.466129 228.211060,53.648624 
	C219.803528,48.906895 216.693253,48.792126 212.492798,53.024261 
	C208.545288,57.001503 207.393555,61.909710 209.490555,65.818489 
	C238.155563,52.569904 272.145660,53.825790 296.098206,82.397842 
z"/>
<path fill="#0B255E" opacity="1.000000" stroke="none" 
	d="
M112.730179,44.574921 
	C119.715454,42.636448 126.165230,43.276699 131.723297,47.171413 
	C138.503815,51.922733 145.860992,53.523182 153.897583,53.123047 
	C155.037689,53.066280 156.188965,53.234241 157.920547,53.330856 
	C158.033081,55.176132 158.330719,56.932697 158.207138,58.659111 
	C157.920197,62.668125 158.693542,65.930389 161.983002,68.847527 
	C165.360870,71.843063 164.528427,75.866013 161.616516,79.461159 
	C159.914001,81.563148 158.528793,84.531883 158.395035,87.181084 
	C157.984070,95.321175 158.002182,103.506844 158.391846,111.649033 
	C158.510529,114.128967 159.883286,116.950386 161.545822,118.865089 
	C164.358566,122.104462 165.688599,126.018837 162.640167,128.591965 
	C158.002274,132.506699 158.181351,137.119110 158.219864,142.104446 
	C158.225967,142.894333 158.016663,143.685867 157.872375,144.725983 
	C117.766350,144.725983 77.868721,144.725983 37.253223,144.725983 
	C37.253223,142.507324 37.140537,140.396011 37.278656,138.301254 
	C37.506958,134.838669 36.924046,132.011383 33.985134,129.494431 
	C30.769590,126.740555 31.463320,122.866058 34.089546,119.285713 
	C35.694916,117.097092 36.964626,114.167557 37.113102,111.499985 
	C37.519711,104.194511 37.197659,96.851006 37.274231,89.523705 
	C37.319592,85.182716 37.346741,81.269508 33.559555,77.753578 
	C32.122368,76.419334 32.222755,70.768097 33.708920,69.465912 
	C37.517712,66.128647 37.487961,62.334194 37.205669,58.233906 
	C36.947010,54.476837 37.981800,52.654587 42.171131,53.050423 
	C50.415375,53.829395 57.849747,51.685852 64.783463,46.937378 
	C70.566574,42.976879 77.491638,41.928806 83.810043,44.932701 
	C93.582436,49.578671 102.871796,49.638493 112.730179,44.574921 
M132.795486,52.717655 
	C121.831062,43.762196 111.179161,49.077190 100.346039,53.664371 
	C100.346039,75.189743 100.346039,96.954460 100.346039,118.342545 
	C114.005173,122.920784 127.472603,127.060974 142.375290,125.101326 
	C142.375290,123.426620 142.375305,121.628418 142.375305,119.830215 
	C142.375320,102.183487 142.182877,84.533546 142.478363,66.891762 
	C142.583649,60.605217 142.897064,54.919643 134.735733,53.839077 
	C134.283875,53.779251 133.882126,53.341076 132.795486,52.717655 
M96.107735,101.498589 
	C96.107735,85.541557 96.107735,69.584526 96.107735,53.634380 
	C92.401428,52.267727 88.962158,51.116909 85.615257,49.741341 
	C78.306938,46.737637 71.418182,47.153240 64.780594,51.666054 
	C62.463886,53.241154 59.969517,54.952366 57.320541,55.541576 
	C53.947445,56.291851 53.793381,58.152519 53.802746,60.865719 
	C53.872265,81.003265 53.834938,101.141167 53.852371,121.278938 
	C53.853603,122.706528 54.023643,124.133972 54.078854,124.994888 
	C68.970139,127.271744 82.332153,122.578476 96.107742,118.264908 
	C96.107742,113.111282 96.107742,107.804573 96.107735,101.498589 
M40.257729,130.734924 
	C40.713844,133.953278 41.169960,137.171631 41.639107,140.481964 
	C79.383026,140.481964 117.076859,140.481964 154.746475,140.481964 
	C155.174896,133.502655 155.346115,133.605118 159.399719,126.830711 
	C160.125000,125.618614 159.407730,122.480431 158.259537,121.425385 
	C155.647583,119.025330 154.844711,116.462303 154.906311,113.063843 
	C155.075378,103.736969 154.729568,94.395302 155.114655,85.081284 
	C155.223587,82.446800 156.654449,79.489120 158.356598,77.391922 
	C160.593475,74.635857 160.704803,72.917992 158.346054,70.140915 
	C156.609924,68.096901 155.846817,65.115089 155.044449,62.433205 
	C154.599640,60.946491 154.964661,59.217491 154.964661,57.379227 
	C151.917358,57.379227 149.352798,57.379227 146.280487,57.379227 
	C146.280487,82.330101 146.280487,107.052803 146.280487,132.151917 
	C133.812271,132.151917 121.847679,132.196106 109.883881,132.118576 
	C107.141708,132.100815 105.065941,132.349121 103.182243,135.007706 
	C100.703194,138.506531 95.230453,138.503082 92.831184,134.967087 
	C90.944725,132.186859 88.778717,132.124313 86.091698,132.133789 
	C74.146667,132.175903 62.201412,132.152039 49.806740,132.152039 
	C49.806740,106.943474 49.806740,82.208794 49.806740,57.408081 
	C46.768517,57.408081 44.191948,57.408081 41.232540,57.408081 
	C41.121887,62.832817 41.948456,68.384537 36.527046,71.963745 
	C35.996830,72.313797 37.186619,75.554070 37.846466,77.354401 
	C38.815926,79.999489 40.875458,82.521156 40.983330,85.156288 
	C41.371433,94.636940 41.231930,104.144897 41.058594,113.638283 
	C41.021664,115.660759 40.544937,118.097961 39.342285,119.601257 
	C34.785339,125.297424 34.642620,125.183250 40.257729,130.734924 
z"/>
<path fill="#0C255F" opacity="1.000000" stroke="none" 
	d="
M435.468079,47.383896 
	C443.731689,42.301434 452.078735,42.511677 460.093262,46.360889 
	C466.876312,49.618641 472.996826,49.298164 479.643127,46.240273 
	C487.788666,42.492611 496.207886,42.169601 503.862915,47.456684 
	C510.374786,51.954189 517.402161,53.512730 525.097900,53.127441 
	C526.549561,53.054756 528.016052,53.277107 530.131470,53.402054 
	C530.131470,55.424744 530.208008,57.198933 530.115845,58.964321 
	C529.911926,62.870567 530.099182,66.234627 533.906616,69.000191 
	C537.184326,71.381004 536.778076,76.077164 533.427246,78.992805 
	C530.732727,81.337402 529.992615,83.920723 530.071716,87.311539 
	C530.257996,95.299919 529.870239,103.308998 530.279297,111.280739 
	C530.414673,113.917984 531.792419,116.848457 533.461670,118.967819 
	C536.080688,122.292877 537.493652,126.122047 534.312256,128.753632 
	C529.765015,132.515060 530.071716,136.986481 530.113586,141.777191 
	C530.120728,142.595215 529.972473,143.414581 529.860107,144.616974 
	C489.779999,144.616974 449.772430,144.616974 409.135834,144.616974 
	C409.135834,142.206207 409.010498,139.919724 409.166138,137.652512 
	C409.383331,134.488174 408.703888,132.054733 406.026123,129.818832 
	C402.654388,127.003494 403.224426,122.743637 405.985382,119.166328 
	C407.547638,117.142159 408.891815,114.385162 408.995789,111.902176 
	C409.357788,103.258553 409.315002,94.584106 409.008972,85.936142 
	C408.932465,83.774208 407.721832,81.301231 406.280090,79.614113 
	C403.534363,76.400963 402.204681,72.425331 405.124420,69.792923 
	C409.432709,65.908661 409.238983,61.505978 409.153137,56.719769 
	C409.135773,55.750370 409.316589,54.777420 409.450714,53.321373 
	C418.431030,52.988113 427.640503,53.764309 435.468079,47.383896 
M420.756592,57.132561 
	C418.314087,57.132561 415.871613,57.132561 414.616516,57.132561 
	C412.834106,62.001022 412.145782,66.570053 409.699036,69.811974 
	C407.224518,73.090729 407.073395,74.774750 409.754364,77.757355 
	C411.442627,79.635574 412.743958,82.542397 412.845520,85.043556 
	C413.209656,94.011734 412.867920,103.006035 413.045166,111.985489 
	C413.121796,115.866028 412.481171,119.025414 409.214600,121.658882 
	C408.161682,122.507744 407.657654,126.185837 408.259979,126.601181 
	C413.287598,130.068130 413.332123,135.150116 412.994781,140.580933 
	C450.938873,140.580933 488.448029,140.580933 526.230957,140.580933 
	C526.502502,137.520340 526.254822,134.423523 527.128235,131.684128 
	C528.992920,125.835785 529.243042,121.541428 527.641846,116.383980 
	C527.763672,107.329590 527.956848,98.275261 527.963867,89.220795 
	C527.966003,86.494568 527.450439,83.767944 527.220947,80.357391 
	C527.734070,79.706230 528.135132,78.903198 528.778503,78.428680 
	C532.784363,75.474289 533.282227,72.742760 529.045227,69.318008 
	C527.632141,68.175835 527.074219,65.654869 526.686157,63.655369 
	C526.294861,61.639282 526.599976,59.488041 526.599976,57.467476 
	C523.244690,57.467476 520.676575,57.467476 517.663574,57.467476 
	C517.663574,82.518799 517.663574,107.237450 517.663574,132.151489 
	C505.055084,132.151489 492.904388,132.051620 480.759033,132.261322 
	C478.977570,132.292084 476.839844,133.405090 475.527100,134.691208 
	C471.955414,138.190460 467.638733,138.205566 464.113068,134.811218 
	C462.687897,133.439102 460.373016,132.314056 458.432831,132.264786 
	C446.623444,131.964844 434.805389,132.007278 423.002899,131.006546 
	C423.004944,108.157715 423.038116,85.308769 422.948761,62.460297 
	C422.941772,60.671722 422.079224,58.886497 420.756592,57.132561 
M466.884491,53.086212 
	C463.761078,51.995388 460.585266,51.033360 457.524628,49.788219 
	C450.044373,46.745049 443.057587,47.153133 436.239288,51.818699 
	C433.152679,53.930782 429.554199,55.294785 425.969543,57.108646 
	C425.969543,79.709534 425.969543,102.594231 425.969543,125.331001 
	C437.995026,126.080215 449.418915,124.732399 460.454193,120.457191 
	C462.735107,119.573517 465.295654,119.411568 468.444672,118.472618 
	C468.628296,117.851044 468.971436,117.229729 468.972443,116.607857 
	C469.005463,96.567535 469.027740,76.527077 468.951324,56.487019 
	C468.947021,55.357838 468.089996,54.231911 466.884491,53.086212 
M513.944336,108.497711 
	C513.944336,93.688171 513.721985,78.873451 514.066895,64.071945 
	C514.184998,59.003395 513.599670,55.527050 507.849579,54.464584 
	C505.860840,54.097111 504.078522,52.437267 502.279663,51.249920 
	C496.434143,47.391609 490.220093,46.828922 483.707581,49.137367 
	C479.835846,50.509754 476.016174,52.029099 472.150818,53.490795 
	C472.150818,75.295914 472.150818,96.894135 472.150818,118.342422 
	C485.675873,122.984138 499.133911,126.950127 513.944336,125.146744 
	C513.944336,120.092918 513.944336,114.794640 513.944336,108.497711 
z"/>
<path fill="#FBFBFC" opacity="1.000000" stroke="none" 
	d="
M285.152374,76.823593 
	C295.234314,87.701195 304.754944,98.636459 314.944763,108.907860 
	C322.305389,116.327408 330.253754,123.251984 338.501923,129.675735 
	C345.413605,135.058563 353.622406,137.403168 362.488617,135.011185 
	C368.066803,133.506271 372.520691,130.494003 373.927795,124.415062 
	C375.497467,117.634140 373.143951,111.629883 367.953247,108.859459 
	C362.942383,106.185005 357.679108,107.360207 352.634308,112.312355 
	C351.579590,113.347702 350.597565,114.457085 349.557556,115.558289 
	C344.316772,105.802650 349.412598,94.841393 360.819611,92.377365 
	C365.115509,91.449402 366.030945,89.663055 366.126923,85.752296 
	C366.219208,81.990593 366.881226,78.110153 368.060059,74.534821 
	C370.702850,66.519508 377.197327,62.630970 385.980133,63.317482 
	C384.950684,67.960396 382.924103,72.628586 383.122375,77.200287 
	C383.463959,85.077538 385.110992,92.907448 386.367706,100.731934 
	C387.025360,104.826508 388.439392,108.831429 388.788818,112.938354 
	C390.618134,134.440506 374.483673,151.884369 352.212555,153.015488 
	C335.680939,153.855118 320.802032,148.449432 306.379486,141.313705 
	C295.365021,135.864182 284.745728,129.544647 273.487915,124.683800 
	C266.141785,121.511917 258.052368,119.784859 250.125122,118.362427 
	C246.619339,117.733368 242.695908,119.495857 238.951263,120.106323 
	C237.147507,120.400391 235.318680,120.540718 233.224045,119.582298 
	C236.652039,117.054008 239.998566,114.404015 243.534607,112.037132 
	C246.211884,110.245094 246.690598,108.755997 244.371170,106.119217 
	C241.646042,103.021294 239.450974,99.457130 237.097397,96.194122 
	C241.252289,89.348663 244.213959,88.489052 250.442490,92.731628 
	C255.206985,95.977005 259.681976,96.322899 264.858673,93.609642 
	C271.101074,90.337830 277.042206,93.496391 277.932434,100.564194 
	C278.394867,104.235519 279.708496,104.703476 283.100891,104.325050 
	C290.342468,103.517220 293.572174,106.499908 293.974182,113.824463 
	C294.118866,116.460495 294.515808,117.661469 297.733795,117.276428 
	C304.766022,116.434982 306.476257,118.114723 306.856689,125.509300 
	C307.008118,128.452545 307.706207,130.677536 310.904236,131.507706 
	C314.852325,132.532578 317.417511,134.709198 317.047272,139.278809 
	C316.999603,139.867279 317.910675,140.533417 318.420532,141.221481 
	C321.712097,137.005417 320.539337,131.550980 315.298920,129.568604 
	C311.270966,128.044891 310.347504,125.725845 310.005035,121.914581 
	C309.472260,115.985786 306.370941,113.931664 298.275635,113.201233 
	C294.626556,102.224380 293.198456,101.111801 283.792664,100.763809 
	C280.318146,96.649651 278.109161,92.254196 274.568024,90.392097 
	C271.622314,88.843086 266.820740,89.421829 263.369843,90.602806 
	C259.386200,91.966110 256.272522,92.341927 252.641037,89.935783 
	C244.851669,84.774689 241.064178,85.461304 235.347183,91.743233 
	C228.931885,90.567307 223.142502,89.506104 217.181335,88.413422 
	C215.664948,83.006760 213.812256,76.401009 211.919601,69.652802 
	C228.794739,56.132015 265.502045,59.492744 285.152374,76.823593 
z"/>
<path fill="#FBFCFD" opacity="1.000000" stroke="none" 
	d="
M184.961212,125.611954 
	C187.236954,121.016693 186.210587,117.424942 182.504944,114.768120 
	C179.366821,112.518204 178.444168,109.573006 179.067749,106.055817 
	C182.060547,89.175644 189.172867,74.196678 200.110687,61.020660 
	C200.411606,60.658146 200.905609,60.455917 202.032913,59.682976 
	C205.253067,66.758209 208.458023,73.607285 211.495102,80.529991 
	C214.256104,86.823395 212.596771,92.120880 207.632370,96.681686 
	C205.943848,98.232948 204.614319,100.174973 203.120758,101.938446 
	C203.503235,102.406677 203.885727,102.874916 204.268219,103.343147 
	C205.767654,102.680313 207.436142,102.248764 208.729263,101.303642 
	C211.005295,99.640137 212.964294,97.547501 215.211304,95.838699 
	C221.725525,90.884796 228.888809,91.809074 233.944046,98.335991 
	C236.476227,101.605347 238.698669,105.114594 241.308273,108.870987 
	C237.351135,111.739243 233.392670,114.450035 229.636841,117.417313 
	C228.334091,118.446533 227.533707,120.111603 226.503860,121.486252 
	C228.034134,122.284691 229.510132,123.226158 231.112564,123.834496 
	C232.307846,124.288261 233.666565,124.311470 235.759933,124.661400 
	C234.824478,126.927940 234.417236,129.108032 233.205338,130.659592 
	C224.588242,141.691849 213.605621,149.011597 199.525620,150.946579 
	C194.628159,151.619629 189.830933,151.278214 187.234482,145.185822 
	C199.424210,145.127808 209.861099,141.865860 217.281647,132.433792 
	C216.942520,131.780014 216.603394,131.126236 216.264267,130.472458 
	C214.742111,131.346771 213.052567,132.020752 211.726028,133.129181 
	C205.059952,138.699280 197.478775,141.933151 188.784714,140.978409 
	C185.475601,140.615021 181.860641,138.917847 179.475677,136.670944 
	C178.722549,135.961411 181.441681,131.458405 182.715988,128.759644 
	C183.202301,127.729759 184.093033,126.890839 184.961212,125.611954 
M206.842194,120.419205 
	C207.103912,118.733086 208.026489,115.841293 207.517029,115.562042 
	C204.787064,114.065651 201.757324,112.789139 198.705521,112.384811 
	C197.641647,112.243866 195.451736,114.649055 195.127274,116.178146 
	C194.537781,118.956314 194.960007,121.949158 194.960007,124.881035 
	C200.093582,126.591293 202.884171,122.864548 206.842194,120.419205 
z"/>
<path fill="#F7F8FA" opacity="1.000000" stroke="none" 
	d="
M295.846802,82.146477 
	C272.145660,53.825790 238.155563,52.569904 209.490555,65.818489 
	C207.393555,61.909710 208.545288,57.001503 212.492798,53.024261 
	C216.693253,48.792126 219.803528,48.906895 228.211060,53.648624 
	C228.595505,53.466129 229.168015,53.373215 229.444412,53.036926 
	C235.771576,45.338604 237.993454,45.212124 246.153793,51.520012 
	C247.130417,52.274944 249.243195,51.967434 250.682343,51.590733 
	C251.884323,51.276108 252.823563,50.059597 253.960617,49.378479 
	C261.204987,45.038944 265.362976,46.425667 268.714996,54.228863 
	C268.962982,54.806156 269.379639,55.310993 269.692780,55.809532 
	C279.877197,52.370262 284.434906,51.162216 285.093201,64.047585 
	C287.034363,63.766266 288.923553,63.416904 290.828674,63.229626 
	C298.522675,62.473270 302.530090,66.180756 302.071655,73.890625 
	C301.907196,76.656357 302.233948,77.811775 305.497711,77.466827 
	C312.181213,76.760437 313.791351,78.744667 313.176727,85.219116 
	C313.059692,86.451889 314.324677,88.706612 315.375488,89.006668 
	C320.147125,90.369156 320.851440,93.499878 319.474609,97.456360 
	C318.403503,100.534401 318.908813,102.224007 322.021729,103.727829 
	C326.126434,105.710777 327.402710,109.286400 325.521484,114.965912 
	C315.360779,103.719223 305.729492,93.058533 295.846802,82.146477 
z"/>
<path fill="#FDFDFE" opacity="1.000000" stroke="none" 
	d="
M133.126266,52.898331 
	C133.882126,53.341076 134.283875,53.779251 134.735733,53.839077 
	C142.897064,54.919643 142.583649,60.605217 142.478363,66.891762 
	C142.182877,84.533546 142.375320,102.183487 142.375305,119.830215 
	C142.375305,121.628418 142.375290,123.426620 142.375290,125.101326 
	C127.472603,127.060974 114.005173,122.920784 100.346039,118.342545 
	C100.346039,96.954460 100.346039,75.189743 100.346039,53.664371 
	C111.179161,49.077190 121.831062,43.762196 133.126266,52.898331 
z"/>
<path fill="#FEFEFE" opacity="1.000000" stroke="none" 
	d="
M96.107742,101.998230 
	C96.107742,107.804573 96.107742,113.111282 96.107742,118.264908 
	C82.332153,122.578476 68.970139,127.271744 54.078854,124.994888 
	C54.023643,124.133972 53.853603,122.706528 53.852371,121.278938 
	C53.834938,101.141167 53.872265,81.003265 53.802746,60.865719 
	C53.793381,58.152519 53.947445,56.291851 57.320541,55.541576 
	C59.969517,54.952366 62.463886,53.241154 64.780594,51.666054 
	C71.418182,47.153240 78.306938,46.737637 85.615257,49.741341 
	C88.962158,51.116909 92.401428,52.267727 96.107735,53.634380 
	C96.107735,69.584526 96.107735,85.541557 96.107742,101.998230 
z"/>
<path fill="#F1F3F6" opacity="1.000000" stroke="none" 
	d="
M40.035927,130.394669 
	C34.642620,125.183250 34.785339,125.297424 39.342285,119.601257 
	C40.544937,118.097961 41.021664,115.660759 41.058594,113.638283 
	C41.231930,104.144897 41.371433,94.636940 40.983330,85.156288 
	C40.875458,82.521156 38.815926,79.999489 37.846466,77.354401 
	C37.186619,75.554070 35.996830,72.313797 36.527046,71.963745 
	C41.948456,68.384537 41.121887,62.832817 41.232540,57.408081 
	C44.191948,57.408081 46.768517,57.408081 49.806740,57.408081 
	C49.806740,82.208794 49.806740,106.943474 49.806740,132.152039 
	C62.201412,132.152039 74.146667,132.175903 86.091698,132.133789 
	C88.778717,132.124313 90.944725,132.186859 92.831184,134.967087 
	C95.230453,138.503082 100.703194,138.506531 103.182243,135.007706 
	C105.065941,132.349121 107.141708,132.100815 109.883881,132.118576 
	C121.847679,132.196106 133.812271,132.151917 146.280487,132.151917 
	C146.280487,107.052803 146.280487,82.330101 146.280487,57.379227 
	C149.352798,57.379227 151.917358,57.379227 154.964661,57.379227 
	C154.964661,59.217491 154.599640,60.946491 155.044449,62.433205 
	C155.846817,65.115089 156.609924,68.096901 158.346054,70.140915 
	C160.704803,72.917992 160.593475,74.635857 158.356598,77.391922 
	C156.654449,79.489120 155.223587,82.446800 155.114655,85.081284 
	C154.729568,94.395302 155.075378,103.736969 154.906311,113.063843 
	C154.844711,116.462303 155.647583,119.025330 158.259537,121.425385 
	C159.407730,122.480431 160.125000,125.618614 159.399719,126.830711 
	C155.346115,133.605118 155.174896,133.502655 154.746475,140.481964 
	C117.076859,140.481964 79.383026,140.481964 41.639107,140.481964 
	C41.169960,137.171631 40.713844,133.953278 40.035927,130.394669 
z"/>
<path fill="#FCFDFD" opacity="1.000000" stroke="none" 
	d="
M513.944336,108.997032 
	C513.944336,114.794640 513.944336,120.092918 513.944336,125.146744 
	C499.133911,126.950127 485.675873,122.984138 472.150818,118.342422 
	C472.150818,96.894135 472.150818,75.295914 472.150818,53.490795 
	C476.016174,52.029099 479.835846,50.509754 483.707581,49.137367 
	C490.220093,46.828922 496.434143,47.391609 502.279663,51.249920 
	C504.078522,52.437267 505.860840,54.097111 507.849579,54.464584 
	C513.599670,55.527050 514.184998,59.003395 514.066895,64.071945 
	C513.721985,78.873451 513.944336,93.688171 513.944336,108.997032 
z"/>
<path fill="#FDFDFE" opacity="1.000000" stroke="none" 
	d="
M467.727325,118.917000 
	C465.295654,119.411568 462.735107,119.573517 460.454193,120.457191 
	C449.418915,124.732399 437.995026,126.080215 425.969543,125.331001 
	C425.969543,102.594231 425.969543,79.709534 425.969543,57.108646 
	C429.554199,55.294785 433.152679,53.930782 436.239288,51.818699 
	C443.057587,47.153133 450.044373,46.745049 457.524628,49.788219 
	C460.585266,51.033360 463.761078,51.995388 467.343170,53.549599 
	C467.777008,75.647659 467.752167,97.282326 467.727325,118.917000 
z"/>
<path fill="#F1F2F6" opacity="1.000000" stroke="none" 
	d="
M527.064209,116.981522 
	C529.243042,121.541428 528.992920,125.835785 527.128235,131.684128 
	C526.254822,134.423523 526.502502,137.520340 526.230957,140.580933 
	C488.448029,140.580933 450.938873,140.580933 412.994781,140.580933 
	C413.332123,135.150116 413.287598,130.068130 408.259979,126.601181 
	C407.657654,126.185837 408.161682,122.507744 409.214600,121.658882 
	C412.481171,119.025414 413.121796,115.866028 413.045166,111.985489 
	C412.867920,103.006035 413.209656,94.011734 412.845520,85.043556 
	C412.743958,82.542397 411.442627,79.635574 409.754364,77.757355 
	C407.073395,74.774750 407.224518,73.090729 409.699036,69.811974 
	C412.145782,66.570053 412.834106,62.001022 414.616516,57.132561 
	C415.871613,57.132561 418.314087,57.132561 421.231903,57.575802 
	C421.710022,81.093597 421.688049,104.168236 421.770294,127.242500 
	C421.775879,128.808243 422.565338,130.371185 422.990204,131.935440 
	C434.805389,132.007278 446.623444,131.964844 458.432831,132.264786 
	C460.373016,132.314056 462.687897,133.439102 464.113068,134.811218 
	C467.638733,138.205566 471.955414,138.190460 475.527100,134.691208 
	C476.839844,133.405090 478.977570,132.292084 480.759033,132.261322 
	C492.904388,132.051620 505.055084,132.151489 517.663574,132.151489 
	C517.663574,107.237450 517.663574,82.518799 517.663574,57.467476 
	C520.676575,57.467476 523.244690,57.467476 526.599976,57.467476 
	C526.599976,59.488041 526.294861,61.639282 526.686157,63.655369 
	C527.074219,65.654869 527.632141,68.175835 529.045227,69.318008 
	C533.282227,72.742760 532.784363,75.474289 528.778503,78.428680 
	C528.135132,78.903198 527.734070,79.706230 527.027466,81.139160 
	C526.910706,93.607796 526.987488,105.294655 527.064209,116.981522 
z"/>
<path fill="#000E4F" opacity="1.000000" stroke="none" 
	d="
M422.996552,131.470993 
	C422.565338,130.371185 421.775879,128.808243 421.770294,127.242500 
	C421.688049,104.168236 421.710022,81.093597 421.660767,57.559380 
	C422.079224,58.886497 422.941772,60.671722 422.948761,62.460297 
	C423.038116,85.308769 423.004944,108.157715 422.996552,131.470993 
z"/>
<path fill="#00084A" opacity="1.000000" stroke="none" 
	d="
M468.085999,118.694809 
	C467.752167,97.282326 467.777008,75.647659 467.715851,53.558723 
	C468.089996,54.231911 468.947021,55.357838 468.951324,56.487019 
	C469.027740,76.527077 469.005463,96.567535 468.972443,116.607857 
	C468.971436,117.229729 468.628296,117.851044 468.085999,118.694809 
z"/>
<path fill="#000D4E" opacity="1.000000" stroke="none" 
	d="
M527.353027,116.682755 
	C526.987488,105.294655 526.910706,93.607796 527.002930,81.481216 
	C527.450439,83.767944 527.966003,86.494568 527.963867,89.220795 
	C527.956848,98.275261 527.763672,107.329590 527.353027,116.682755 
z"/>
<path fill="#0C2862" opacity="1.000000" stroke="none" 
	d="
M206.572510,120.648460 
	C202.884171,122.864548 200.093582,126.591293 194.960007,124.881035 
	C194.960007,121.949158 194.537781,118.956314 195.127274,116.178146 
	C195.451736,114.649055 197.641647,112.243866 198.705521,112.384811 
	C201.757324,112.789139 204.787064,114.065651 207.517029,115.562042 
	C208.026489,115.841293 207.103912,118.733086 206.572510,120.648460 
z"/>
</svg>